# xmcd
#
# Track frame offsets:
# 150
# 8883
# 21016
# 31620
# 49695
# 61413
# 74518
# 88943
# 128411
# 139151
# 158248
# 166156
# 184505
# 200285
#
# Disc length: 3091 seconds
#
#
# Revision: 0
# Processed by: cddbd v1.5.2PL0 Copyright (c) Steve Scherf et al.
# Submitted via: FreeRIP 2.944 
#
DISCID=af0c110e
DTITLE=Black Ale Sinners - Honky Tonkin with the...
DYEAR=2006
DGENRE=Country
TTITLE0=Honky Tonkin' with Me
TTITLE1=Will I Ever
TTITLE2=Through the Cracks
TTITLE3=Do not Disturb
TTITLE4=Highway 10
TTITLE5=Hepatic Differentiation of Human Umbilical Cord Stem Cell Matices
TTITLE6=Devil in my Drink
TTITLE7=New York City Demons
TTITLE8=Whiskey Drenched
TTITLE9=Midnight
TTITLE10=Trouble
TTITLE11=Bob Saget
TTITLE12=Saturday Night
TTITLE13=14- Monitor Man
EXTD=
EXTT0=
EXTT1=
EXTT2=
EXTT3=
EXTT4=
EXTT5=
EXTT6=
EXTT7=
EXTT8=
EXTT9=
EXTT10=
EXTT11=
EXTT12=
EXTT13=
PLAYORDER=
